<?xml version="1.0" encoding="utf-8"?>
<!-- Generator: Adobe Illustrator 26.0.0, SVG Export Plug-In . SVG Version: 6.00 Build 0)  -->
<svg version="1.1" id="Camada_1" xmlns="http://www.w3.org/2000/svg" xmlns:xlink="http://www.w3.org/1999/xlink" x="0px" y="0px"
	 viewBox="0 0 113.4 113.4" style="enable-background:new 0 0 113.4 113.4;" xml:space="preserve">
<style type="text/css">
	.st0{fill-rule:evenodd;clip-rule:evenodd;fill:#6C819C;}
	.st1{fill-rule:evenodd;clip-rule:evenodd;fill:url(#SVGID_1_);}
	.st2{fill-rule:evenodd;clip-rule:evenodd;fill:#DBB42C;}
	.st3{fill-rule:evenodd;clip-rule:evenodd;fill:url(#SVGID_00000165208497193724274910000016603598252221366942_);}
	.st4{fill-rule:evenodd;clip-rule:evenodd;fill:url(#SVGID_00000080195776900491050080000008144813822547816835_);}
	.st5{fill-rule:evenodd;clip-rule:evenodd;fill:url(#SVGID_00000078038993292533425460000002893076121191448720_);}
	.st6{fill-rule:evenodd;clip-rule:evenodd;fill:url(#SVGID_00000124871584473101068820000016794376242021669529_);}
	.st7{fill-rule:evenodd;clip-rule:evenodd;fill:url(#SVGID_00000095304051927985416360000000259951288747931559_);}
</style>
<g>
	<path class="st0" d="M24.4,26.3c9.9,3.1,21.6,15.3,29.5,32.1s9.9,33.6,6,43.2c3.1,1.2,5.9,1.3,8.3,0.2c4.6-2.1,6.7-8.6,6.4-17.2
		c-0.3-9-3.2-20.4-8.6-31.9s-12.4-21-19.2-26.9c-6.5-5.7-12.8-8.2-17.4-6C27.2,20.9,25.4,23.1,24.4,26.3L24.4,26.3z"/>
	
		<linearGradient id="SVGID_1_" gradientUnits="userSpaceOnUse" x1="106.2152" y1="995.5893" x2="176.6586" y2="899.5053" gradientTransform="matrix(0.7612 0 0 0.7612 -45.2294 -669.7265)">
		<stop  offset="0" style="stop-color:#5E451A"/>
		<stop  offset="0.251" style="stop-color:#BE9A2E"/>
		<stop  offset="0.4" style="stop-color:#4C3814"/>
		<stop  offset="0.6" style="stop-color:#4C3814"/>
		<stop  offset="0.749" style="stop-color:#B98F2E"/>
		<stop  offset="1" style="stop-color:#865F25"/>
	</linearGradient>
	<path class="st1" d="M48.6,92.9c-2-10.2,3.1-26.3,14-41.3s24.7-24.8,35-26c-0.4-3.3-1.7-5.8-3.8-7.4c-4.1-3-10.7-1.7-18.2,2.7
		c-7.8,4.6-16.4,12.5-23.9,22.8C44.2,54,39.2,64.6,37.3,73.4c-1.9,8.5-1,15.2,3.1,18.1C42.5,93.1,45.3,93.5,48.6,92.9L48.6,92.9z"/>
	<path class="st2" d="M54.6,94L54.6,94z M100.5,31L100.5,31z M84.7,67.7C77,78.3,68.1,86.6,60,91.3c-0.1,0.1-0.2,0.1-0.4,0.2
		c0,0-0.1,0-0.1,0.1c-0.1,0.1-0.2,0.1-0.3,0.2c0,0,0,0-0.1,0c-0.1,0.1-0.2,0.1-0.3,0.2h-0.1c-0.1,0.1-0.2,0.1-0.3,0.2l0,0
		c-0.1,0.1-0.2,0.1-0.4,0.2l0,0c-0.1,0.1-0.2,0.1-0.4,0.2l0,0c-0.1,0-0.2,0.1-0.3,0.2l0,0c0,0,0,0-0.1,0s-0.2,0.1-0.3,0.1
		c0,0,0,0-0.1,0s-0.2,0.1-0.3,0.2c0,0,0,0-0.1,0s-0.2,0.1-0.3,0.1H56c-0.1,0-0.2,0.1-0.3,0.1c0,0,0,0-0.1,0s-0.2,0.1-0.3,0.1h-0.1
		c-0.1,0-0.2,0.1-0.3,0.1c0,0,0,0-0.1,0s-0.2,0.1-0.3,0.1l0,0c-0.1,0-0.3,0.1-0.4,0.2l0,0c-0.1,0-0.2,0.1-0.3,0.1c0,0,0,0-0.1,0
		S53.5,94,53.4,94c-0.2,0.1-0.5,0.2-0.7,0.3c0,0,0,0-0.1,0s-0.2,0.1-0.3,0.1c-0.2,0.1-0.5,0.2-0.8,0.2l0,0c-0.1,0-0.2,0.1-0.3,0.1
		c0,0,0,0-0.1,0s-0.2,0-0.3,0.1h-0.1c-0.1,0-0.2,0-0.2,0.1h-0.1c-0.1,0-0.2,0-0.2,0.1h-0.1c-0.1,0-0.2,0-0.3,0.1h-0.1
		c-0.1,0-0.2,0-0.3,0.1c-0.1,0-0.2,0-0.4,0.1l0,0c-0.1,0-0.2,0-0.3,0h-0.1c-0.1,0-0.2,0-0.3,0l0,0l0,0c-0.1,0-0.2,0-0.3,0
		c0,0,0,0-0.1,0s-0.2,0-0.3,0h-0.1c-0.1,0-0.2,0-0.2,0h-0.1c-0.1,0-0.2,0-0.3,0l0,0l0,0c-0.1,0-0.2,0-0.3,0c0,0,0,0-0.1,0
		s-0.2,0-0.2,0h-0.1l0,0c-2.9,0.1-5.5-0.6-7.6-2.1l11.9,8.6c9.7,7.1,30.3-4.6,46-26.1s20.4-44.7,10.7-51.8L95.4,16
		c2.1,1.5,3.6,3.8,4.3,6.6l0,0c0,0,0,0,0,0.1s0,0.2,0.1,0.2c0,0,0,0,0,0.1s0,0.2,0.1,0.3l0,0c0,0.1,0,0.2,0.1,0.3c0,0,0,0,0,0.1
		s0,0.2,0.1,0.3c0,0,0,0,0,0.1c0.1,0.3,0.1,0.6,0.2,1c0,0,0,0,0,0.1s0,0.2,0,0.3l0,0c0,0.1,0,0.2,0,0.3l0,0c0,0.1,0,0.2,0,0.3
		c0,0,0,0,0,0.1s0,0.2,0,0.3v0.1c0,0.1,0,0.2,0,0.3c0,0,0,0,0,0.1s0,0.2,0,0.2v0.1c0,0.1,0,0.2,0,0.3c0,0,0,0,0,0.1s0,0.2,0,0.3v0.1
		c0,0.1,0,0.2,0,0.3l0,0c0,0.1,0,0.2,0,0.4l0,0c0,0.1,0,0.2,0,0.3v0.1c0,0.1,0,0.2,0,0.3l0,0l0,0c0,0.1,0,0.2,0,0.3v0.1
		c0,0.1,0,0.2,0,0.3c0,0,0,0,0,0.1s0,0.2,0,0.4c0,0,0,0,0,0.1s0,0.2,0,0.3l0,0l0,0c0,0.1,0,0.2,0,0.4c0,0,0,0,0,0.1s0,0.2,0,0.3V32
		c0,0.1,0,0.2,0,0.3c0,0,0,0,0,0.1s0,0.2,0,0.4l0,0l0,0c0,0.1,0,0.3,0,0.4c0,0.1,0,0.2,0,0.4l0,0c0,0.1,0,0.2,0,0.3c0,0,0,0,0,0.1
		c0,0,0,0,0,0.1s0,0.2,0,0.3c0,0,0,0,0,0.1s0,0.3-0.1,0.4l0,0c0,0.1,0,0.2-0.1,0.4l0,0l0,0c0,0.1,0,0.2-0.1,0.3v0.1
		c0,0.1,0,0.2-0.1,0.4c0,0,0,0,0,0.1s0,0.3-0.1,0.4l0,0c0,0.1-0.1,0.3-0.1,0.4C97.5,46.2,92.4,57.2,84.7,67.7L84.7,67.7z"/>
	
		<linearGradient id="SVGID_00000129912805900049394280000007215232923099593396_" gradientUnits="userSpaceOnUse" x1="73.5394" y1="913.0907" x2="132.2718" y2="1028.5739" gradientTransform="matrix(0.7612 0 0 0.7612 -45.2294 -669.7265)">
		<stop  offset="0" style="stop-color:#B38A2E"/>
		<stop  offset="0.2" style="stop-color:#E4C933"/>
		<stop  offset="0.4" style="stop-color:#E2CB38"/>
		<stop  offset="0.6" style="stop-color:#B48A2D"/>
		<stop  offset="0.8" style="stop-color:#AA792B"/>
		<stop  offset="1" style="stop-color:#6A5120"/>
	</linearGradient>
	<path style="fill-rule:evenodd;clip-rule:evenodd;fill:url(#SVGID_00000129912805900049394280000007215232923099593396_);" d="
		M20.5,31L20.5,31z M53.8,101.6L53.8,101.6z M29.1,70.1c-5.6-11.8-8.5-23.6-8.8-33c0-0.1,0-0.3,0-0.4v-0.1c0-0.1,0-0.2,0-0.3v-0.1
		c0-0.1,0-0.2,0-0.4v-0.1c0-0.1,0-0.2,0-0.4l0,0c0-0.1,0-0.3,0-0.4l0,0c0-0.1,0-0.3,0-0.4l0,0c0-0.1,0-0.2,0-0.4l0,0c0,0,0,0,0-0.1
		s0-0.2,0-0.3c0,0,0,0,0-0.1s0-0.2,0-0.4c0,0,0,0,0-0.1s0-0.2,0-0.3v-0.1c0-0.1,0-0.2,0-0.3v-0.1c0-0.1,0-0.2,0-0.3v-0.1
		c0-0.1,0-0.2,0-0.3c0,0,0,0,0-0.1s0-0.2,0-0.4l0,0c0-0.1,0-0.3,0-0.4l0,0c0-0.1,0-0.2,0-0.3c0,0,0,0,0-0.1s0-0.2,0-0.3
		c0-0.3,0.1-0.5,0.1-0.8c0,0,0,0,0-0.1s0-0.2,0.1-0.4c0-0.3,0.1-0.5,0.2-0.8l0,0c0-0.1,0-0.2,0.1-0.3c0,0,0,0,0-0.1s0-0.2,0.1-0.3
		v-0.1c0-0.1,0-0.2,0.1-0.2v-0.1c0-0.1,0-0.2,0.1-0.2v-0.1c0-0.1,0-0.2,0.1-0.3v-0.1c0-0.1,0.1-0.2,0.1-0.3c0-0.1,0.1-0.2,0.1-0.3
		l0,0c0-0.1,0.1-0.2,0.1-0.3v-0.1c0-0.1,0.1-0.2,0.1-0.2l0,0l0,0c0-0.1,0.1-0.2,0.1-0.3c0,0,0,0,0-0.1s0.1-0.2,0.1-0.2v-0.1
		c0-0.1,0.1-0.2,0.1-0.2v-0.1c0-0.1,0.1-0.2,0.1-0.2l0,0l0,0c0-0.1,0.1-0.2,0.1-0.2s0,0,0-0.1s0.1-0.2,0.1-0.2v-0.1l0,0
		c1.3-2.6,3.1-4.5,5.5-5.6l-12.7,6C4.1,28.6,4.5,52.3,15.8,76.3c11.4,24.1,29.4,39.4,40.3,34.2l13.2-6.2c-2.4,1.1-5,1.3-7.8,0.7
		c0,0,0,0-0.1,0c0,0,0,0-0.1,0s-0.2,0-0.3-0.1c0,0,0,0-0.1,0s-0.2,0-0.3-0.1l0,0c-0.1,0-0.2,0-0.3-0.1c0,0,0,0-0.1,0s-0.2,0-0.3-0.1
		c0,0,0,0-0.1,0c-0.3-0.1-0.6-0.2-0.9-0.3c0,0,0,0-0.1,0s-0.2-0.1-0.3-0.1l0,0c-0.1,0-0.2-0.1-0.3-0.1l0,0c-0.1,0-0.2-0.1-0.3-0.1
		c0,0,0,0-0.1,0s-0.2-0.1-0.3-0.1c0,0,0,0-0.1,0s-0.2-0.1-0.3-0.1c0,0,0,0-0.1,0s-0.2-0.1-0.2-0.1h-0.1c-0.1,0-0.2-0.1-0.3-0.1
		c0,0,0,0-0.1,0s-0.2-0.1-0.3-0.1h-0.1c-0.1,0-0.2-0.1-0.3-0.2l0,0c-0.1-0.1-0.2-0.1-0.3-0.2l0,0c-0.1,0-0.2-0.1-0.3-0.2h-0.1
		c-0.1,0-0.2-0.1-0.3-0.2l0,0l0,0c-0.1,0-0.2-0.1-0.3-0.2h-0.1c-0.1-0.1-0.2-0.1-0.3-0.2c0,0,0,0-0.1,0c-0.1-0.1-0.2-0.1-0.3-0.2
		c0,0,0,0-0.1,0c-0.1-0.1-0.2-0.1-0.3-0.2l0,0l0,0c-0.1-0.1-0.2-0.1-0.3-0.2l0,0c-0.1-0.1-0.2-0.1-0.3-0.2c0,0-0.1,0-0.1-0.1
		c-0.1-0.1-0.2-0.1-0.3-0.2l0,0c-0.1-0.1-0.2-0.1-0.3-0.2l0,0l0,0c-0.1-0.1-0.2-0.2-0.4-0.2c-0.1-0.1-0.2-0.2-0.3-0.2l0,0
		c-0.1-0.1-0.2-0.1-0.3-0.2l0,0l0,0c-0.1-0.1-0.2-0.1-0.2-0.2c0,0,0,0-0.1,0c-0.1-0.1-0.2-0.2-0.3-0.2l0,0c-0.1-0.1-0.2-0.2-0.3-0.2
		l0,0l0,0c-0.1-0.1-0.2-0.1-0.3-0.2c0,0,0,0-0.1-0.1s-0.2-0.2-0.3-0.2c0,0,0,0-0.1-0.1s-0.2-0.2-0.3-0.3l0,0
		c-0.1-0.1-0.2-0.2-0.3-0.3C41.9,91.7,34.8,81.9,29.1,70.1L29.1,70.1z"/>
	
		<linearGradient id="SVGID_00000069364961863339667310000000879772004879952263_" gradientUnits="userSpaceOnUse" x1="146.6725" y1="987.5765" x2="96.3505" y2="906.9645" gradientTransform="matrix(0.7612 0 0 0.7612 -45.2294 -669.7265)">
		<stop  offset="0" style="stop-color:#D8BD2E"/>
		<stop  offset="1" style="stop-color:#7E5823"/>
	</linearGradient>
	<path style="fill-rule:evenodd;clip-rule:evenodd;fill:url(#SVGID_00000069364961863339667310000000879772004879952263_);" d="
		M24.4,26.3c9.9,3.1,21.6,15.3,29.5,32.1s9.9,33.6,6,43.2c3.1,1.2,5.9,1.3,8.3,0.2c4.6-2.1,6.7-8.6,6.4-17.2
		c-0.3-9-3.2-20.4-8.6-31.9s-12.4-21-19.2-26.9c-6.5-5.7-12.8-8.2-17.4-6C27.2,20.9,25.4,23.1,24.4,26.3L24.4,26.3z"/>
	
		<linearGradient id="SVGID_00000149360321721781061710000011878814838663352224_" gradientUnits="userSpaceOnUse" x1="134.9012" y1="1012.0842" x2="206.0072" y2="911.0697" gradientTransform="matrix(0.7612 0 0 0.7612 -45.2294 -669.7265)">
		<stop  offset="0" style="stop-color:#4D3915"/>
		<stop  offset="0.2" style="stop-color:#A77D2C"/>
		<stop  offset="0.4" style="stop-color:#926B29"/>
		<stop  offset="0.6" style="stop-color:#CFB82E"/>
		<stop  offset="0.8" style="stop-color:#785823"/>
		<stop  offset="1" style="stop-color:#B49630"/>
	</linearGradient>
	<path style="fill-rule:evenodd;clip-rule:evenodd;fill:url(#SVGID_00000149360321721781061710000011878814838663352224_);" d="
		M84.7,67.7C77,78.3,68.1,86.6,60,91.3c-0.1,0.1-0.2,0.1-0.4,0.2c0,0-0.1,0-0.1,0.1c-0.1,0.1-0.2,0.1-0.3,0.2c0,0,0,0-0.1,0
		c-0.1,0.1-0.2,0.1-0.3,0.2h-0.1c-0.1,0.1-0.2,0.1-0.3,0.2l0,0c-0.1,0.1-0.2,0.1-0.4,0.2l0,0c-0.1,0.1-0.2,0.1-0.4,0.2l0,0
		c-0.1,0-0.2,0.1-0.3,0.2l0,0c0,0,0,0-0.1,0s-0.2,0.1-0.3,0.1c0,0,0,0-0.1,0s-0.2,0.1-0.3,0.2c0,0,0,0-0.1,0s-0.2,0.1-0.3,0.1H56
		c-0.1,0-0.2,0.1-0.3,0.1c0,0,0,0-0.1,0s-0.2,0.1-0.3,0.1h-0.1c-0.1,0-0.2,0.1-0.3,0.1c0,0,0,0-0.1,0s-0.2,0.1-0.3,0.1l0,0
		c-0.1,0-0.3,0.1-0.4,0.2l0,0c-0.1,0-0.2,0.1-0.3,0.1c0,0,0,0-0.1,0S53.5,94,53.4,94c-0.2,0.1-0.5,0.2-0.7,0.3c0,0,0,0-0.1,0
		s-0.2,0.1-0.3,0.1c-0.2,0.1-0.5,0.2-0.8,0.2l0,0c-0.1,0-0.2,0.1-0.3,0.1c0,0,0,0-0.1,0s-0.2,0-0.3,0.1h-0.1c-0.1,0-0.2,0-0.2,0.1
		h-0.1h-0.1c0.2,0.1,0.3,0.3,0.5,0.4c6.1,5.4,12,7.8,16.4,6.5c0.6-0.3,1.2-0.6,1.8-0.9l0,0l0,0c0.2-0.1,0.4-0.2,0.6-0.3l0.2-0.1
		c0.2-0.1,0.4-0.2,0.6-0.3l0.2-0.1c0.2-0.1,0.4-0.2,0.6-0.3l0.2-0.1c0.2-0.1,0.4-0.2,0.6-0.3l0.2-0.1c0.2-0.1,0.4-0.2,0.5-0.3
		l0.2-0.2c0.2-0.1,0.4-0.2,0.5-0.3l0.3-0.2c0.2-0.1,0.3-0.2,0.5-0.3l0.4-0.2l0.3-0.2l0.1-0.1l0,0l0.3-0.2l0,0
		c7.1-4.9,14.6-12.2,21.1-21.2c15.6-21.5,20.4-44.6,10.7-51.7L95.4,16c2.1,1.5,3.6,3.8,4.3,6.6l0,0c0,0,0,0,0,0.1s0,0.2,0.1,0.2
		c0,0,0,0,0,0.1s0,0.2,0.1,0.3l0,0c0,0.1,0,0.2,0.1,0.3c0,0,0,0,0,0.1s0,0.2,0.1,0.3c0,0,0,0,0,0.1c0.1,0.3,0.1,0.6,0.2,1
		c0,0,0,0,0,0.1s0,0.2,0,0.3l0,0c0,0.1,0,0.2,0,0.3l0,0c0,0.1,0,0.2,0,0.3c0,0,0,0,0,0.1s0,0.2,0,0.3v0.1c0,0.1,0,0.2,0,0.3
		c0,0,0,0,0,0.1s0,0.2,0,0.2v0.1c0,0.1,0,0.2,0,0.3c0,0,0,0,0,0.1s0,0.2,0,0.3v0.1c0,0.1,0,0.2,0,0.3l0,0c0,0.1,0,0.2,0,0.4l0,0
		c0,0.1,0,0.2,0,0.3v0.1c0,0.1,0,0.2,0,0.3l0,0l0,0c0,0.1,0,0.2,0,0.3v0.1c0,0.1,0,0.2,0,0.3c0,0,0,0,0,0.1s0,0.2,0,0.4
		c0,0,0,0,0,0.1s0,0.2,0,0.3l0,0l0,0c0,0.1,0,0.2,0,0.4c0,0,0,0,0,0.1s0,0.2,0,0.3V32c0,0.1,0,0.2,0,0.3c0,0,0,0,0,0.1s0,0.2,0,0.4
		l0,0l0,0c0,0.1,0,0.3,0,0.4c0,0.1,0,0.2,0,0.4l0,0c0,0.1,0,0.2,0,0.3c0,0,0,0,0,0.1c0,0,0,0,0,0.1s0,0.2,0,0.3c0,0,0,0,0,0.1
		s0,0.3-0.1,0.4l0,0c0,0.1,0,0.2-0.1,0.4l0,0l0,0c0,0.1,0,0.2-0.1,0.3v0.1c0,0.1,0,0.2-0.1,0.4c0,0,0,0,0,0.1s0,0.3-0.1,0.4l0,0
		c0,0.1-0.1,0.3-0.1,0.4C97.5,46.2,92.4,57.2,84.7,67.7L84.7,67.7z"/>
	
		<linearGradient id="SVGID_00000020372363495896255350000006752770346013093255_" gradientUnits="userSpaceOnUse" x1="81.3592" y1="937.7969" x2="168.2907" y2="982.6273" gradientTransform="matrix(0.7612 0 0 0.7612 -45.2294 -669.7265)">
		<stop  offset="0" style="stop-color:#EADA5B"/>
		<stop  offset="0.2" style="stop-color:#C5AF2F"/>
		<stop  offset="0.4" style="stop-color:#C7A92E"/>
		<stop  offset="0.6" style="stop-color:#705522"/>
		<stop  offset="0.8" style="stop-color:#B28F2F"/>
		<stop  offset="1" style="stop-color:#5A421A"/>
	</linearGradient>
	<path style="fill-rule:evenodd;clip-rule:evenodd;fill:url(#SVGID_00000020372363495896255350000006752770346013093255_);" d="
		M66.1,52.7c3.9,8.3,6.5,16.5,7.7,23.8c0.8-0.8,1.6-1.7,2.4-2.6c-1.4-7-3.9-14.7-7.6-22.5c-2.9-6.1-6.2-11.7-9.8-16.6
		c-0.6-0.8-1.1-1.5-1.7-2.2c-2.7-3.5-5.6-6.5-8.4-9c-7.4-6.5-14.8-9.1-20.4-6.4S20,27.3,20.3,37c0.3,9.4,3.3,21.1,8.8,33
		c1.4,3,3,5.9,4.5,8.6c0.9,1.5,1.8,3,2.7,4.4c2.5,3.7,5,7.1,7.7,9.9c0.9,1,1.8,2,2.8,2.9c0.7,0.7,1.4,1.3,2.1,2
		c7.4,6.4,14.8,9.1,20.4,6.4c2.7-1.3,4.7-3.6,6-6.8c-2.2,1.5-4.3,2.7-6.4,3.8c-0.3,0.2-0.6,0.3-0.9,0.5c-4.5,2.1-10.9-0.3-17.4-6
		c-0.2-0.1-0.3-0.3-0.5-0.4c-0.8-0.7-1.6-1.5-2.5-2.3c-3.9-4-7.8-9.1-11.4-15c-0.8-1.3-1.5-2.6-2.2-3.9c-0.9-1.7-1.8-3.5-2.7-5.3
		c-5.1-11.4-8-22.8-8.2-31.8c-0.2-8.6,1.9-15.1,6.5-17.2s10.9,0.3,17.4,6c2.8,2.5,5.6,5.5,8.3,9c0.6,0.7,1.1,1.5,1.7,2.3
		C60.2,41.6,63.3,46.9,66.1,52.7L66.1,52.7z"/>
	
		<linearGradient id="SVGID_00000129890299512152612950000009482020948997551762_" gradientUnits="userSpaceOnUse" x1="197.1869" y1="918.1649" x2="98.5334" y2="985.1938" gradientTransform="matrix(0.7612 0 0 0.7612 -45.2294 -669.7265)">
		<stop  offset="0" style="stop-color:#D2B52D"/>
		<stop  offset="0.4" style="stop-color:#EEDF71"/>
		<stop  offset="1" style="stop-color:#5D4419"/>
	</linearGradient>
	<path style="fill-rule:evenodd;clip-rule:evenodd;fill:url(#SVGID_00000129890299512152612950000009482020948997551762_);" d="
		M34.3,74.2c0.7,1.3,1.5,2.6,2.2,3.9c0.2-1.5,0.4-3,0.8-4.6c1.7-7.5,5.5-16.2,11.1-25c-0.6-0.9-1.1-1.7-1.7-2.5
		c-6.2,9.4-10.4,18.8-12.2,26.9C34.5,73.3,34.4,73.7,34.3,74.2z M73.8,76.5c-5.1,5.3-10.3,9.6-15.2,12.4c-3.9,2.2-7.5,3.7-10.7,4.1
		c0.8,0.8,1.6,1.6,2.5,2.3c3-0.7,6.3-2.1,9.6-4.1c4.6-2.7,9.5-6.6,14.3-11.4c0.8-0.8,1.7-1.7,2.4-2.6c2.7-2.9,5.4-6.2,7.9-9.7
		c7.8-10.4,12.9-21.3,15-30.5c2.1-9.6,0.9-17.3-4.2-21s-12.8-2.4-21.2,2.5c-5.5,3.2-11.4,8.1-17,14.2c0.6,0.7,1.1,1.5,1.7,2.2
		c5.5-6.1,11.3-10.9,16.7-14.1c7.5-4.4,14.2-5.6,18.2-2.7s4.9,9.7,3.1,18.1C95,45.2,90,55.8,82.5,66c-2,2.8-4.2,5.4-6.3,7.8
		C75.4,74.8,74.6,75.7,73.8,76.5L73.8,76.5z"/>
</g>
</svg>
