<?xml version="1.0" encoding="utf-8"?>
<!-- Generator: Adobe Illustrator 26.0.0, SVG Export Plug-In . SVG Version: 6.00 Build 0)  -->
<svg version="1.1" id="Camada_1" xmlns="http://www.w3.org/2000/svg" xmlns:xlink="http://www.w3.org/1999/xlink" x="0px" y="0px"
	 viewBox="0 0 113.39 113.39" style="enable-background:new 0 0 113.39 113.39;" xml:space="preserve">
<style type="text/css">
	.st0{fill-rule:evenodd;clip-rule:evenodd;fill:#6C819C;}
	.st1{fill-rule:evenodd;clip-rule:evenodd;fill:url(#SVGID_1_);}
	.st2{fill-rule:evenodd;clip-rule:evenodd;fill:#DBB42C;}
	.st3{fill-rule:evenodd;clip-rule:evenodd;fill:url(#SVGID_00000100363518409146820700000014098649865132782723_);}
	.st4{fill-rule:evenodd;clip-rule:evenodd;fill:url(#SVGID_00000145032511561308485420000004324164067809326771_);}
	.st5{fill-rule:evenodd;clip-rule:evenodd;fill:url(#SVGID_00000069371060221395055950000007051083512695101354_);}
	.st6{fill-rule:evenodd;clip-rule:evenodd;fill:url(#SVGID_00000137097014610788120600000005007788477443198855_);}
	.st7{fill-rule:evenodd;clip-rule:evenodd;fill:url(#SVGID_00000014620888352929665990000010475921976700861855_);}
</style>
<g>
	<path class="st0" d="M21.39,20.3c9.93,3.12,21.6,15.31,29.52,32.11s9.93,33.56,6.02,43.22c3.1,1.18,5.94,1.29,8.3,0.2
		c4.55-2.14,6.67-8.59,6.43-17.25c-0.27-9.04-3.15-20.4-8.57-31.89S50.73,25.74,43.93,19.81c-6.52-5.71-12.83-8.17-17.38-6
		C24.16,14.9,22.44,17.15,21.39,20.3L21.39,20.3z"/>
	
		<linearGradient id="SVGID_1_" gradientUnits="userSpaceOnUse" x1="-40.4548" y1="403.9666" x2="30.0178" y2="307.8428" gradientTransform="matrix(0.7612 0 0 0.7612 63.4246 -225.3812)">
		<stop  offset="0" style="stop-color:#5E451A"/>
		<stop  offset="0.251" style="stop-color:#BE9A2E"/>
		<stop  offset="0.4" style="stop-color:#4C3814"/>
		<stop  offset="0.6" style="stop-color:#4C3814"/>
		<stop  offset="0.749" style="stop-color:#B98F2E"/>
		<stop  offset="1" style="stop-color:#865F25"/>
	</linearGradient>
	<path class="st1" d="M45.58,86.95c-2.03-10.22,3.06-26.29,13.99-41.33s24.68-24.81,35.01-26.02c-0.45-3.28-1.7-5.82-3.82-7.36
		c-4.06-2.97-10.73-1.74-18.21,2.66c-7.81,4.57-16.38,12.54-23.88,22.83c-7.48,10.29-12.43,20.89-14.39,29.72
		c-1.87,8.46-1,15.17,3.08,18.14C39.51,87.11,42.32,87.53,45.58,86.95L45.58,86.95z"/>
	<path class="st2" d="M51.58,88.02L51.58,88.02z M97.48,24.98L97.48,24.98z M81.73,61.74c-7.72,10.6-16.6,18.83-24.72,23.59
		c-0.11,0.07-0.22,0.13-0.36,0.2c-0.04,0.02-0.07,0.04-0.11,0.07c-0.09,0.07-0.2,0.11-0.29,0.16c-0.02,0.02-0.04,0.02-0.07,0.04
		c-0.11,0.07-0.22,0.11-0.33,0.18c-0.02,0.02-0.07,0.04-0.09,0.04c-0.11,0.07-0.22,0.11-0.33,0.18l0,0
		c-0.13,0.07-0.25,0.13-0.38,0.2c0,0-0.02,0-0.02,0.02c-0.11,0.07-0.25,0.13-0.36,0.18c-0.02,0-0.04,0.02-0.04,0.02
		c-0.11,0.04-0.2,0.11-0.31,0.16c-0.02,0-0.02,0.02-0.04,0.02c-0.02,0-0.04,0.02-0.07,0.02c-0.09,0.04-0.2,0.09-0.29,0.13
		c-0.02,0-0.04,0.02-0.07,0.02c-0.11,0.04-0.22,0.11-0.33,0.16c-0.02,0.02-0.04,0.02-0.07,0.02c-0.11,0.04-0.2,0.09-0.31,0.13
		c-0.02,0.02-0.07,0.02-0.09,0.04c-0.09,0.04-0.18,0.09-0.27,0.13c-0.02,0.02-0.04,0.02-0.09,0.04c-0.11,0.04-0.2,0.09-0.31,0.13
		c-0.02,0.02-0.07,0.02-0.09,0.04c-0.11,0.04-0.2,0.09-0.31,0.13c-0.02,0-0.04,0.02-0.07,0.02c-0.11,0.04-0.22,0.09-0.31,0.13h-0.02
		c-0.13,0.04-0.27,0.11-0.4,0.16l0,0c-0.11,0.04-0.2,0.09-0.31,0.11c-0.02,0-0.04,0.02-0.07,0.02c-0.11,0.04-0.2,0.07-0.31,0.11
		c-0.25,0.09-0.49,0.18-0.74,0.27c-0.02,0-0.04,0.02-0.07,0.02c-0.11,0.04-0.22,0.07-0.33,0.11c-0.25,0.09-0.49,0.16-0.76,0.22l0,0
		c-0.11,0.02-0.2,0.07-0.31,0.09c-0.02,0-0.04,0-0.07,0.02c-0.09,0.02-0.2,0.04-0.29,0.09c-0.02,0-0.07,0.02-0.09,0.02
		c-0.09,0.02-0.16,0.04-0.25,0.07c-0.04,0-0.07,0.02-0.11,0.02c-0.09,0.02-0.16,0.04-0.25,0.07c-0.04,0-0.07,0.02-0.09,0.02
		c-0.09,0.02-0.18,0.04-0.29,0.07c-0.02,0-0.07,0.02-0.09,0.02c-0.09,0.02-0.2,0.04-0.29,0.07c-0.11,0.02-0.25,0.04-0.36,0.07l0,0
		c-0.09,0.02-0.2,0.04-0.29,0.04c-0.02,0-0.07,0-0.09,0.02c-0.09,0.02-0.18,0.02-0.27,0.04c-0.02,0-0.02,0-0.04,0h-0.02
		c-0.09,0.02-0.18,0.02-0.27,0.04c-0.02,0-0.04,0-0.07,0c-0.09,0-0.18,0.02-0.27,0.02c-0.02,0-0.07,0-0.09,0
		c-0.09,0-0.18,0.02-0.25,0.02c-0.02,0-0.07,0-0.09,0c-0.09,0-0.18,0.02-0.27,0.02l0,0c0,0,0,0-0.02,0c-0.09,0-0.18,0.02-0.27,0.02
		c-0.02,0-0.04,0-0.07,0c-0.09,0-0.18,0-0.25,0.02c-0.04,0-0.07,0-0.09,0c-0.02,0-0.04,0-0.04,0c-2.9,0.09-5.47-0.6-7.59-2.12
		l11.85,8.61c9.73,7.1,30.33-4.6,45.97-26.09s20.44-44.67,10.71-51.77L92.42,9.99c2.1,1.54,3.55,3.77,4.35,6.56
		c0,0.02,0,0.04,0.02,0.04c0,0.02,0.02,0.04,0.02,0.09c0.02,0.09,0.04,0.18,0.07,0.25c0,0.02,0,0.04,0.02,0.07
		c0.02,0.09,0.04,0.18,0.07,0.29l0,0c0.02,0.09,0.04,0.18,0.07,0.29c0,0.02,0,0.04,0.02,0.07c0.02,0.09,0.04,0.18,0.07,0.27
		c0,0.02,0,0.04,0.02,0.07c0.07,0.31,0.11,0.62,0.18,0.96c0,0.02,0,0.04,0.02,0.07c0.02,0.09,0.02,0.2,0.04,0.29
		c0,0.02,0,0.02,0,0.04c0.02,0.11,0.02,0.22,0.04,0.33l0,0c0.02,0.09,0.02,0.2,0.04,0.29c0,0.02,0,0.04,0,0.09
		c0,0.09,0.02,0.2,0.02,0.29c0,0.02,0,0.07,0,0.09c0,0.09,0.02,0.2,0.02,0.29c0,0.02,0,0.04,0,0.09c0,0.09,0.02,0.16,0.02,0.25
		c0,0.02,0,0.07,0,0.09c0,0.09,0,0.2,0.02,0.29c0,0.02,0,0.04,0,0.07c0,0.09,0,0.2,0,0.29c0,0.04,0,0.07,0,0.11
		c0,0.11,0,0.22,0,0.33l0,0c0,0.11,0,0.25,0,0.38c0,0,0,0,0,0.02c0,0.11,0,0.22,0,0.33c0,0.04,0,0.07,0,0.09c0,0.11,0,0.2,0,0.31
		v0.02c0,0,0,0,0,0.02c0,0.11,0,0.2,0,0.31c0,0.04,0,0.07,0,0.11c0,0.11,0,0.22-0.02,0.31c0,0.02,0,0.04,0,0.07
		c0,0.11-0.02,0.25-0.02,0.36c0,0.02,0,0.04,0,0.07c0,0.11-0.02,0.22-0.02,0.33v0.02l0,0c0,0.11-0.02,0.25-0.02,0.36
		c0,0.02,0,0.04,0,0.07c0,0.11-0.02,0.22-0.02,0.33c0,0.04,0,0.07,0,0.11c0,0.11-0.02,0.22-0.02,0.33c0,0.02,0,0.04,0,0.07
		c-0.02,0.11-0.02,0.25-0.04,0.36c0,0,0,0.02,0,0.04v0.04c-0.02,0.13-0.04,0.29-0.04,0.42c-0.02,0.13-0.02,0.25-0.04,0.38
		c0,0.02,0,0.02,0,0.04c-0.02,0.11-0.02,0.22-0.04,0.33c0,0.02,0,0.04,0,0.07c0,0.02,0,0.04,0,0.07c-0.02,0.11-0.02,0.22-0.04,0.31
		c0,0.02,0,0.04-0.02,0.07c-0.02,0.13-0.04,0.27-0.07,0.38c0,0.02,0,0.02,0,0.04c-0.02,0.13-0.04,0.25-0.07,0.38
		c0,0.02,0,0.02,0,0.04s0,0.02,0,0.04c-0.02,0.11-0.04,0.22-0.07,0.33c0,0.04-0.02,0.07-0.02,0.11c-0.02,0.11-0.04,0.25-0.07,0.36
		c0,0.02-0.02,0.04-0.02,0.09c-0.02,0.13-0.04,0.27-0.09,0.4v0.02c-0.02,0.13-0.07,0.29-0.09,0.42
		C94.54,40.16,89.43,51.16,81.73,61.74L81.73,61.74z"/>
	
		<linearGradient id="SVGID_00000061451041683517542740000008443582922533958822_" gradientUnits="userSpaceOnUse" x1="-72.7822" y1="321.2822" x2="-14.0498" y2="436.7654" gradientTransform="matrix(0.7612 0 0 0.7612 63.4246 -225.3812)">
		<stop  offset="0" style="stop-color:#B38A2E"/>
		<stop  offset="0.2" style="stop-color:#E4C933"/>
		<stop  offset="0.4" style="stop-color:#E2CB38"/>
		<stop  offset="0.6" style="stop-color:#B48A2D"/>
		<stop  offset="0.8" style="stop-color:#AA792B"/>
		<stop  offset="1" style="stop-color:#6A5120"/>
	</linearGradient>
	<path style="fill-rule:evenodd;clip-rule:evenodd;fill:url(#SVGID_00000061451041683517542740000008443582922533958822_);" d="
		M17.55,25.05L17.55,25.05z M50.85,95.57L50.85,95.57z M26.14,64.1c-5.58-11.85-8.55-23.59-8.81-33c0-0.13,0-0.27,0-0.4
		c0-0.04,0-0.09,0-0.13c0-0.11,0-0.22,0-0.33c0-0.02,0-0.07,0-0.09c0-0.13,0-0.25,0-0.38c0-0.04,0-0.07,0-0.11c0-0.13,0-0.25,0-0.38
		l0,0c0-0.13,0-0.29,0-0.42c0-0.02,0-0.02,0-0.04c0-0.13,0-0.27,0-0.4c0-0.02,0-0.04,0-0.04c0-0.11,0-0.22,0.02-0.36
		c0-0.02,0-0.04,0-0.04c0-0.02,0-0.04,0-0.07c0-0.11,0-0.22,0.02-0.33c0-0.02,0-0.04,0-0.07c0-0.13,0.02-0.25,0.02-0.38
		c0-0.02,0-0.04,0-0.07c0-0.11,0.02-0.22,0.02-0.33c0-0.04,0-0.07,0-0.09c0-0.09,0.02-0.2,0.02-0.29c0-0.02,0-0.07,0-0.09
		c0-0.11,0.02-0.22,0.02-0.33c0-0.04,0-0.07,0-0.11c0-0.11,0.02-0.22,0.02-0.33c0-0.02,0-0.04,0-0.07c0.02-0.11,0.02-0.22,0.04-0.36
		v-0.02c0.02-0.13,0.04-0.29,0.04-0.42v-0.02c0.02-0.11,0.02-0.22,0.04-0.33c0-0.02,0-0.04,0-0.07c0.02-0.11,0.02-0.22,0.04-0.31
		c0.04-0.27,0.09-0.51,0.13-0.76c0-0.02,0-0.04,0.02-0.07c0.02-0.11,0.04-0.22,0.07-0.36c0.04-0.27,0.11-0.51,0.16-0.76l0,0
		c0.02-0.11,0.04-0.2,0.07-0.31c0-0.02,0-0.04,0.02-0.07c0.02-0.09,0.04-0.2,0.07-0.29c0-0.02,0.02-0.07,0.02-0.09
		c0.02-0.09,0.04-0.16,0.07-0.25c0-0.04,0.02-0.07,0.02-0.11c0.02-0.09,0.04-0.16,0.07-0.25c0-0.02,0.02-0.07,0.02-0.09
		c0.02-0.09,0.04-0.18,0.09-0.27c0-0.02,0.02-0.07,0.02-0.09c0.02-0.09,0.07-0.18,0.09-0.29c0.04-0.11,0.07-0.22,0.11-0.33l0,0
		c0.02-0.09,0.07-0.2,0.09-0.29c0.02-0.02,0.02-0.07,0.02-0.09c0.02-0.09,0.07-0.16,0.09-0.25c0,0,0-0.02,0.02-0.02V18.8
		c0.02-0.09,0.07-0.18,0.09-0.27c0-0.02,0.02-0.04,0.02-0.07c0.02-0.09,0.07-0.16,0.09-0.25c0.02-0.02,0.02-0.07,0.04-0.09
		c0.02-0.09,0.07-0.16,0.09-0.25c0.02-0.02,0.02-0.07,0.04-0.09c0.04-0.09,0.07-0.18,0.11-0.25l0,0c0,0,0,0,0-0.02
		c0.04-0.09,0.07-0.16,0.11-0.25c0-0.02,0.02-0.04,0.02-0.07c0.04-0.07,0.07-0.16,0.11-0.22c0.02-0.02,0.02-0.07,0.04-0.09
		c0-0.02,0.02-0.02,0.02-0.04c1.32-2.59,3.15-4.53,5.51-5.62L12,17.49C1.11,22.62,1.46,46.3,12.82,70.33
		c11.36,24.06,29.37,39.39,40.28,34.23l13.25-6.25c-2.37,1.12-5.02,1.29-7.85,0.67c-0.02,0-0.04,0-0.07-0.02
		c-0.02,0-0.04-0.02-0.09-0.02c-0.09-0.02-0.18-0.04-0.27-0.07c-0.02,0-0.04,0-0.07-0.02c-0.09-0.02-0.18-0.04-0.29-0.07l0,0
		c-0.09-0.02-0.18-0.04-0.29-0.09c-0.02,0-0.04-0.02-0.07-0.02c-0.09-0.02-0.18-0.04-0.27-0.09c-0.02,0-0.04-0.02-0.07-0.02
		c-0.31-0.09-0.6-0.2-0.91-0.31c-0.02,0-0.04-0.02-0.07-0.02c-0.09-0.04-0.18-0.07-0.27-0.11c0,0-0.02,0-0.04-0.02
		c-0.11-0.04-0.2-0.09-0.31-0.13l0,0c-0.09-0.04-0.18-0.07-0.27-0.11c-0.02,0-0.04-0.02-0.07-0.02c-0.09-0.04-0.18-0.09-0.27-0.11
		c-0.02-0.02-0.04-0.02-0.09-0.04c-0.09-0.04-0.18-0.09-0.27-0.11c-0.02,0-0.04-0.02-0.07-0.02c-0.07-0.04-0.16-0.07-0.22-0.11
		c-0.02-0.02-0.07-0.02-0.09-0.04c-0.09-0.04-0.18-0.09-0.27-0.13c-0.02,0-0.04-0.02-0.07-0.02c-0.09-0.04-0.18-0.09-0.27-0.13
		c-0.02-0.02-0.07-0.02-0.09-0.04c-0.09-0.04-0.2-0.11-0.29-0.16l0,0c-0.11-0.07-0.22-0.11-0.33-0.18c0,0,0,0-0.02,0
		c-0.09-0.04-0.2-0.11-0.29-0.16c-0.02-0.02-0.07-0.04-0.09-0.04c-0.09-0.04-0.18-0.09-0.27-0.16c0,0-0.02,0-0.02-0.02l0,0
		c-0.09-0.04-0.18-0.11-0.27-0.16c-0.02-0.02-0.07-0.04-0.09-0.04c-0.09-0.07-0.18-0.11-0.27-0.18c-0.02-0.02-0.04-0.02-0.07-0.04
		c-0.09-0.07-0.2-0.11-0.29-0.18c-0.02-0.02-0.04-0.02-0.07-0.04c-0.09-0.07-0.18-0.11-0.27-0.18h-0.02l0,0
		c-0.09-0.07-0.2-0.13-0.31-0.2c-0.02-0.02-0.04-0.02-0.04-0.04c-0.09-0.07-0.2-0.13-0.29-0.2c-0.02-0.02-0.07-0.04-0.09-0.07
		c-0.09-0.07-0.18-0.11-0.27-0.18c-0.02-0.02-0.04-0.02-0.04-0.04c-0.09-0.07-0.2-0.13-0.29-0.2l-0.02-0.02l-0.02-0.02
		c-0.11-0.09-0.22-0.16-0.36-0.25c-0.09-0.07-0.2-0.16-0.29-0.22l-0.02-0.02c-0.09-0.07-0.18-0.13-0.27-0.2
		c-0.02-0.02-0.02-0.02-0.04-0.04s-0.02-0.02-0.04-0.04c-0.09-0.07-0.18-0.13-0.25-0.2c-0.02-0.02-0.04-0.02-0.07-0.04
		c-0.11-0.09-0.2-0.16-0.31-0.25l-0.02-0.02c-0.11-0.09-0.2-0.16-0.31-0.25l-0.02-0.02l-0.02-0.02c-0.09-0.07-0.18-0.13-0.27-0.22
		c-0.02-0.02-0.04-0.04-0.09-0.07c-0.09-0.09-0.2-0.16-0.29-0.25c-0.02-0.02-0.04-0.04-0.07-0.07c-0.11-0.09-0.2-0.18-0.31-0.27
		c0,0-0.02,0-0.02-0.02c-0.11-0.09-0.22-0.2-0.33-0.29C38.93,85.7,31.75,75.95,26.14,64.1L26.14,64.1z"/>
	
		<linearGradient id="SVGID_00000047754719418482220520000012829211597182240931_" gradientUnits="userSpaceOnUse" x1="0.0417" y1="395.9194" x2="-50.2803" y2="315.3074" gradientTransform="matrix(0.7612 0 0 0.7612 63.4246 -225.3812)">
		<stop  offset="0" style="stop-color:#D8BD2E"/>
		<stop  offset="1" style="stop-color:#7E5823"/>
	</linearGradient>
	<path style="fill-rule:evenodd;clip-rule:evenodd;fill:url(#SVGID_00000047754719418482220520000012829211597182240931_);" d="
		M21.39,20.3c9.93,3.12,21.6,15.31,29.52,32.11s9.93,33.56,6.02,43.22c3.1,1.18,5.94,1.29,8.3,0.2c4.55-2.14,6.67-8.59,6.43-17.25
		c-0.27-9.04-3.15-20.4-8.57-31.89S50.73,25.74,43.93,19.81c-6.52-5.71-12.83-8.17-17.38-6C24.16,14.9,22.44,17.15,21.39,20.3
		L21.39,20.3z"/>
	
		<linearGradient id="SVGID_00000039829515981543258220000015798288264037218741_" gradientUnits="userSpaceOnUse" x1="-11.6599" y1="420.6268" x2="59.4461" y2="319.6124" gradientTransform="matrix(0.7612 0 0 0.7612 63.4246 -225.3812)">
		<stop  offset="0" style="stop-color:#4D3915"/>
		<stop  offset="0.2" style="stop-color:#A77D2C"/>
		<stop  offset="0.4" style="stop-color:#926B29"/>
		<stop  offset="0.6" style="stop-color:#CFB82E"/>
		<stop  offset="0.8" style="stop-color:#785823"/>
		<stop  offset="1" style="stop-color:#B49630"/>
	</linearGradient>
	<path style="fill-rule:evenodd;clip-rule:evenodd;fill:url(#SVGID_00000039829515981543258220000015798288264037218741_);" d="
		M81.73,61.74c-7.72,10.6-16.6,18.83-24.72,23.59c-0.11,0.07-0.22,0.13-0.36,0.2c-0.04,0.02-0.07,0.04-0.11,0.07
		c-0.09,0.07-0.2,0.11-0.29,0.16c-0.02,0.02-0.04,0.02-0.07,0.04c-0.11,0.07-0.22,0.11-0.33,0.18c-0.02,0.02-0.07,0.04-0.09,0.04
		c-0.11,0.07-0.22,0.11-0.33,0.18l0,0c-0.13,0.07-0.25,0.13-0.38,0.2c0,0-0.02,0-0.02,0.02c-0.11,0.07-0.25,0.13-0.36,0.18
		c-0.02,0-0.04,0.02-0.04,0.02c-0.11,0.04-0.2,0.11-0.31,0.16c-0.02,0-0.02,0.02-0.04,0.02c-0.02,0-0.04,0.02-0.07,0.02
		c-0.09,0.04-0.2,0.09-0.29,0.13c-0.02,0-0.04,0.02-0.07,0.02c-0.11,0.04-0.22,0.11-0.33,0.16c-0.02,0.02-0.04,0.02-0.07,0.02
		c-0.11,0.04-0.2,0.09-0.31,0.13c-0.02,0.02-0.07,0.02-0.09,0.04c-0.09,0.04-0.18,0.09-0.27,0.13c-0.02,0.02-0.04,0.02-0.09,0.04
		c-0.11,0.04-0.2,0.09-0.31,0.13c-0.02,0.02-0.07,0.02-0.09,0.04c-0.11,0.04-0.2,0.09-0.31,0.13c-0.02,0-0.04,0.02-0.07,0.02
		c-0.11,0.04-0.22,0.09-0.31,0.13h-0.02c-0.13,0.04-0.27,0.11-0.4,0.16l0,0c-0.11,0.04-0.2,0.09-0.31,0.11
		c-0.02,0-0.04,0.02-0.07,0.02c-0.11,0.04-0.2,0.07-0.31,0.11c-0.25,0.09-0.49,0.18-0.74,0.27c-0.02,0-0.04,0.02-0.07,0.02
		c-0.11,0.04-0.22,0.07-0.33,0.11c-0.25,0.09-0.49,0.16-0.76,0.22l0,0c-0.11,0.02-0.2,0.07-0.31,0.09c-0.02,0-0.04,0-0.07,0.02
		c-0.09,0.02-0.2,0.04-0.29,0.09c-0.02,0-0.07,0.02-0.09,0.02c-0.09,0.02-0.16,0.04-0.25,0.07c-0.04,0-0.07,0.02-0.11,0.02
		l-0.11,0.02c0.16,0.13,0.31,0.27,0.47,0.4c6.09,5.36,11.96,7.85,16.42,6.47c0.6-0.27,1.23-0.56,1.85-0.87l0,0l0.04-0.02
		c0.2-0.09,0.38-0.2,0.58-0.29l0.18-0.09c0.2-0.09,0.38-0.2,0.58-0.31l0.22-0.11c0.18-0.09,0.36-0.2,0.56-0.31l0.22-0.13
		c0.18-0.11,0.36-0.2,0.56-0.31l0.25-0.13c0.18-0.11,0.36-0.22,0.54-0.33l0.25-0.16c0.18-0.11,0.36-0.22,0.54-0.33l0.27-0.18
		c0.16-0.11,0.31-0.2,0.47-0.31l0.36-0.25l0.33-0.22l0.11-0.07l0,0l0.31-0.2l0,0c7.12-4.91,14.55-12.18,21.11-21.2
		C109.2,48.88,114,25.7,104.27,18.6L92.42,9.99c2.1,1.54,3.55,3.77,4.35,6.56c0,0.02,0,0.04,0.02,0.04c0,0.02,0.02,0.04,0.02,0.09
		c0.02,0.09,0.04,0.18,0.07,0.25c0,0.02,0,0.04,0.02,0.07c0.02,0.09,0.04,0.18,0.07,0.29l0,0c0.02,0.09,0.04,0.18,0.07,0.29
		c0,0.02,0,0.04,0.02,0.07c0.02,0.09,0.04,0.18,0.07,0.27c0,0.02,0,0.04,0.02,0.07c0.07,0.31,0.11,0.62,0.18,0.96
		c0,0.02,0,0.04,0.02,0.07c0.02,0.09,0.02,0.2,0.04,0.29c0,0.02,0,0.02,0,0.04c0.02,0.11,0.02,0.22,0.04,0.33l0,0
		c0.02,0.09,0.02,0.2,0.04,0.29c0,0.02,0,0.04,0,0.09c0,0.09,0.02,0.2,0.02,0.29c0,0.02,0,0.07,0,0.09c0,0.09,0.02,0.2,0.02,0.29
		c0,0.02,0,0.04,0,0.09c0,0.09,0.02,0.16,0.02,0.25c0,0.02,0,0.07,0,0.09c0,0.09,0,0.2,0.02,0.29c0,0.02,0,0.04,0,0.07
		c0,0.09,0,0.2,0,0.29c0,0.04,0,0.07,0,0.11c0,0.11,0,0.22,0,0.33l0,0c0,0.11,0,0.25,0,0.38c0,0,0,0,0,0.02c0,0.11,0,0.22,0,0.33
		c0,0.04,0,0.07,0,0.09c0,0.11,0,0.2,0,0.31v0.02c0,0,0,0,0,0.02c0,0.11,0,0.2,0,0.31c0,0.04,0,0.07,0,0.11c0,0.11,0,0.22-0.02,0.31
		c0,0.02,0,0.04,0,0.07c0,0.11-0.02,0.25-0.02,0.36c0,0.02,0,0.04,0,0.07c0,0.11-0.02,0.22-0.02,0.33v0.02l0,0
		c0,0.11-0.02,0.25-0.02,0.36c0,0.02,0,0.04,0,0.07c0,0.11-0.02,0.22-0.02,0.33c0,0.04,0,0.07,0,0.11c0,0.11-0.02,0.22-0.02,0.33
		c0,0.02,0,0.04,0,0.07c-0.02,0.11-0.02,0.25-0.04,0.36c0,0,0,0.02,0,0.04v0.04c-0.02,0.13-0.04,0.29-0.04,0.42
		c-0.02,0.13-0.02,0.25-0.04,0.38c0,0.02,0,0.02,0,0.04c-0.02,0.11-0.02,0.22-0.04,0.33c0,0.02,0,0.04,0,0.07c0,0.02,0,0.04,0,0.07
		c-0.02,0.11-0.02,0.22-0.04,0.31c0,0.02,0,0.04-0.02,0.07c-0.02,0.13-0.04,0.27-0.07,0.38c0,0.02,0,0.02,0,0.04
		c-0.02,0.13-0.04,0.25-0.07,0.38c0,0.02,0,0.02,0,0.04s0,0.02,0,0.04c-0.02,0.11-0.04,0.22-0.07,0.33c0,0.04-0.02,0.07-0.02,0.11
		c-0.02,0.11-0.04,0.25-0.07,0.36c0,0.02-0.02,0.04-0.02,0.09c-0.02,0.13-0.04,0.27-0.09,0.4v0.02c-0.02,0.13-0.07,0.29-0.09,0.42
		C94.54,40.16,89.43,51.16,81.73,61.74L81.73,61.74z"/>
	
		<linearGradient id="SVGID_00000150094426023764953160000007628776673939443585_" gradientUnits="userSpaceOnUse" x1="-65.3634" y1="346.2511" x2="21.5681" y2="391.0814" gradientTransform="matrix(0.7612 0 0 0.7612 63.4246 -225.3812)">
		<stop  offset="0" style="stop-color:#EADA5B"/>
		<stop  offset="0.2" style="stop-color:#C5AF2F"/>
		<stop  offset="0.4" style="stop-color:#C7A92E"/>
		<stop  offset="0.6" style="stop-color:#705522"/>
		<stop  offset="0.8" style="stop-color:#B28F2F"/>
		<stop  offset="1" style="stop-color:#5A421A"/>
	</linearGradient>
	<path style="fill-rule:evenodd;clip-rule:evenodd;fill:url(#SVGID_00000150094426023764953160000007628776673939443585_);" d="
		M63.08,46.67c3.91,8.3,6.49,16.49,7.74,23.83c0.78-0.83,1.58-1.67,2.37-2.57c-1.38-7.03-3.93-14.73-7.56-22.45
		c-2.9-6.14-6.23-11.74-9.75-16.56c-0.56-0.78-1.14-1.52-1.72-2.25c-2.74-3.5-5.58-6.54-8.39-8.99c-7.41-6.45-14.79-9.1-20.44-6.43
		c-5.65,2.66-8.3,10.06-8.01,19.84c0.29,9.42,3.26,21.15,8.84,33c1.43,3.01,2.95,5.91,4.55,8.64c0.89,1.52,1.81,2.99,2.74,4.4
		c2.45,3.7,5.04,7.05,7.65,9.93c0.91,1,1.85,1.96,2.77,2.86c0.71,0.69,1.43,1.34,2.12,1.96c7.39,6.45,14.77,9.1,20.42,6.45
		c2.7-1.27,4.71-3.61,6.02-6.78c-2.16,1.47-4.28,2.74-6.36,3.77c-0.27,0.18-0.56,0.33-0.87,0.47c-4.55,2.14-10.87-0.31-17.38-6
		c-0.16-0.13-0.31-0.27-0.47-0.4c-0.83-0.74-1.63-1.52-2.45-2.34c-3.93-3.99-7.83-9.08-11.38-15c-0.76-1.27-1.5-2.57-2.23-3.91
		c-0.91-1.7-1.81-3.46-2.66-5.27c-5.42-11.51-8.3-22.85-8.57-31.89c-0.2-8.64,1.92-15.06,6.47-17.2s10.87,0.31,17.38,6
		c2.79,2.45,5.62,5.49,8.35,9.02c0.58,0.74,1.14,1.5,1.7,2.28C57.25,35.63,60.35,40.9,63.08,46.67L63.08,46.67z"/>
	
		<linearGradient id="SVGID_00000141456783754656539580000015242714671747276697_" gradientUnits="userSpaceOnUse" x1="50.5484" y1="326.6027" x2="-48.1051" y2="393.6317" gradientTransform="matrix(0.7612 0 0 0.7612 63.4246 -225.3812)">
		<stop  offset="0" style="stop-color:#D2B52D"/>
		<stop  offset="0.4" style="stop-color:#EEDF71"/>
		<stop  offset="1" style="stop-color:#5D4419"/>
	</linearGradient>
	<path style="fill-rule:evenodd;clip-rule:evenodd;fill:url(#SVGID_00000141456783754656539580000015242714671747276697_);" d="
		M31.34,68.16c0.71,1.34,1.47,2.63,2.23,3.91c0.16-1.47,0.4-3.01,0.76-4.62c1.65-7.48,5.47-16.25,11.14-24.99
		c-0.56-0.87-1.09-1.72-1.67-2.54c-6.23,9.37-10.4,18.83-12.18,26.93C31.5,67.29,31.41,67.74,31.34,68.16z M70.82,70.51
		c-5.07,5.31-10.29,9.55-15.22,12.43c-3.86,2.25-7.5,3.68-10.67,4.13c0.83,0.83,1.63,1.61,2.45,2.34c3.01-0.71,6.27-2.1,9.64-4.06
		c4.64-2.72,9.53-6.58,14.3-11.36c0.83-0.83,1.65-1.67,2.45-2.57c2.72-2.95,5.4-6.18,7.94-9.68c7.7-10.6,12.81-21.58,14.86-30.77
		c2.12-9.57,0.89-17.32-4.15-21c-5.04-3.68-12.81-2.45-21.24,2.5c-5.53,3.24-11.4,8.1-17.03,14.19c0.58,0.74,1.14,1.5,1.72,2.25
		c5.53-6.09,11.31-10.89,16.74-14.06c7.48-4.37,14.15-5.6,18.21-2.66s4.95,9.68,3.08,18.14c-1.94,8.84-6.9,19.44-14.39,29.72
		c-2.03,2.79-4.15,5.42-6.29,7.83C72.38,68.83,71.6,69.68,70.82,70.51L70.82,70.51z"/>
</g>
</svg>
